<svg width="64" height="64" viewBox="0 0 64 64" fill="none" xmlns="http://www.w3.org/2000/svg">
  <rect x="6" y="6" width="52" height="52" rx="16" fill="url(#bg)"/>
  <path d="M19 22.5C19 20.6 20.6 19 22.5 19H30.5C32.4 19 34 20.6 34 22.5V30.5C34 32.4 32.4 34 30.5 34H22.5C20.6 34 19 32.4 19 30.5V22.5Z" fill="white" fill-opacity="0.94"/>
  <path d="M36 22.5C36 20.6 37.6 19 39.5 19H42.5C44.4 19 46 20.6 46 22.5V25.5C46 27.4 44.4 29 42.5 29H39.5C37.6 29 36 27.4 36 25.5V22.5Z" fill="#CFE0FF"/>
  <path d="M23.5 41.5L45.5 33.8C47.3 33.2 48.8 35.1 47.9 36.8L43.9 44.3C43.6 44.9 43.1 45.4 42.5 45.7L35 49.7C33.3 50.6 31.4 49.1 32 47.3L39.7 25.3" stroke="white" stroke-width="4.2" stroke-linecap="round" stroke-linejoin="round"/>
  <path d="M34.5 38.4L39.4 33.5" stroke="#255FEA" stroke-width="4.2" stroke-linecap="round"/>
  <circle cx="25.5" cy="26.5" r="3.5" fill="#2F6DF6"/>
  <defs>
    <linearGradient id="bg" x1="8" y1="8" x2="58" y2="58" gradientUnits="userSpaceOnUse">
      <stop stop-color="#4F8BFF"/>
      <stop offset="0.52" stop-color="#2563EB"/>
      <stop offset="1" stop-color="#16A3D8"/>
    </linearGradient>
  </defs>
</svg>
